<svg width="349" height="348" viewBox="0 0 349 348" fill="none" xmlns="http://www.w3.org/2000/svg">
<g clip-path="url(#clip0_32_57)">
<path d="M18.0032 21.7537H56.3041C68.5189 21.7537 59.0984 19.896 59.0784 0H121.19C121.19 9.32874 128.056 16.58 124.404 21.7537H174.081C176.376 25.4892 176.616 27.347 176.536 31.0825H145.281C158.254 36.8555 171.846 57.8702 160.07 67.3387C146.857 77.9659 141.868 91.4696 128.914 102.037C115.901 112.664 96.4214 113.183 80.634 113.123C65.2856 113.064 -22.3336 92.768 20.5379 67.3387C39.3591 56.1722 36.2056 38.3337 51.6937 31.0825H20.4381C20.5379 27.347 20.2785 25.4892 17.9832 21.7537H18.0032ZM217.611 148.76C224.797 177.885 133.305 177.346 121.789 177.346C90.5734 177.366 6.86614 178.664 0.239807 148.76C-5.60813 122.352 100.313 120.155 119.973 120.175C142.247 120.175 210.686 120.794 217.611 148.76ZM76.8817 103.815C83.3084 104.654 72.0117 95.6246 100.034 67.3387C107.459 59.8478 109.235 33.0801 98.4971 30.8627C92.6691 29.6642 114.165 39.2526 80.5741 67.3387C67.5609 78.2256 54.9869 100.918 76.8817 103.815ZM62.3317 148.76C65.6049 164.102 101.132 168.017 119.314 168.037C131.11 168.037 159.691 166.599 155.5 148.76C151.727 132.72 130.172 129.464 115.143 129.484C101.71 129.504 59.2181 134.118 62.3317 148.76ZM173.802 13.4637H235.914C248.967 26.6279 244.556 48.5015 239.965 64.0227C246.292 63.2037 249.186 59.8877 250.344 46.6237H281.4C281.06 69.3962 249.865 73.1717 232.62 73.5512H228.269C205.656 90.2111 226.074 98.5411 227.052 115.201H164.94C157.954 106.871 155.559 97.8219 157.755 88.0737C156.837 76.1481 163.443 68.2376 177.574 64.3423C187.513 48.5015 180.548 28.0661 173.802 13.4837V13.4637Z" fill="#D9E0E8"/>
<path d="M113.226 198.62H142.007C152.146 198.62 130.67 196.962 127.058 174.789H177.773C179.49 185.356 198.75 193.447 197.293 198.62H235.594C238.548 202.356 237.769 204.214 236.632 207.949H207.652C215.815 220.234 230.704 259.447 225.874 272.391C214.058 304.073 186.076 346.961 148.214 347.181C133.265 347.261 115.202 343.545 106.341 330.122C94.2056 311.744 109.394 291.348 115.941 272.391C126.26 242.447 107.977 226.187 143.264 207.949H114.284C115.442 204.214 116.22 202.356 113.246 198.62H113.226ZM148.194 337.852C150.569 337.812 151.188 332.279 153.982 326.007C161.647 308.867 171.366 290.649 178.232 272.371C184.02 256.91 175.638 235.256 175.957 219.156C176.117 211.205 177.454 208.169 175.578 207.729C166.317 205.632 167.514 253.634 163.523 272.371C160.469 286.694 140.031 337.972 148.174 337.852H148.194ZM298.404 265.959H288.046C274.673 294.105 261.62 316.558 262.478 348H211.763C211.005 331.32 214.018 319.395 219.607 304.632C223.778 293.586 235.594 279.103 236.951 267.098C238.248 255.552 230.425 247.661 230.165 237.453C229.327 203.954 251.401 216.359 221.403 186.195H272.119C292.038 195.045 295.75 206.77 283.276 221.413C278.785 233.878 280.481 245.604 288.345 256.63H298.704C290.84 245.604 289.163 233.858 293.634 221.413C306.108 206.77 302.396 195.025 282.477 186.195H333.193C363.191 216.359 341.116 203.974 341.955 237.453C342.214 247.661 350.038 255.552 348.741 267.098C347.383 279.123 335.568 293.606 331.396 304.632C325.808 319.395 322.794 331.32 323.553 348H272.837C271.979 316.558 285.032 294.085 298.404 265.959Z" fill="#D9E0E8"/>
</g>
<defs>
<clipPath id="clip0_32_57">
<rect width="349" height="348" fill="white"/>
</clipPath>
</defs>
</svg>
